<mxfile host="app.diagrams.net" modified="2022-07-19T02:06:41.996Z" agent="5.0 (Windows NT 10.0; Win64; x64) AppleWebKit/537.36 (KHTML, like Gecko) Chrome/103.0.0.0 Safari/537.36" etag="AAy0n8k3VZFutLJ1vFLS" version="20.0.4" type="github">
  <diagram id="z-WIZhmsR8eHMmmbYmnl" name="Page-1">
    <mxGraphModel dx="553" dy="1268" grid="1" gridSize="10" guides="1" tooltips="1" connect="1" arrows="1" fold="1" page="1" pageScale="1" pageWidth="1169" pageHeight="827" math="0" shadow="0">
      <root>
        <mxCell id="0" />
        <mxCell id="1" parent="0" />
        <mxCell id="DHVbr6--1tinv_JmC_Sy-45" value="사용자" style="swimlane;fontStyle=1;align=center;verticalAlign=top;childLayout=stackLayout;horizontal=1;startSize=26;horizontalStack=0;resizeParent=1;resizeParentMax=0;resizeLast=0;collapsible=1;marginBottom=0;" vertex="1" parent="1">
          <mxGeometry x="690" y="140" width="90" height="86" as="geometry" />
        </mxCell>
        <mxCell id="DHVbr6--1tinv_JmC_Sy-46" value="비로그인 " style="text;strokeColor=none;fillColor=none;align=left;verticalAlign=top;spacingLeft=4;spacingRight=4;overflow=hidden;rotatable=0;points=[[0,0.5],[1,0.5]];portConstraint=eastwest;" vertex="1" parent="DHVbr6--1tinv_JmC_Sy-45">
          <mxGeometry y="26" width="90" height="26" as="geometry" />
        </mxCell>
        <mxCell id="DHVbr6--1tinv_JmC_Sy-47" value="" style="line;strokeWidth=1;fillColor=none;align=left;verticalAlign=middle;spacingTop=-1;spacingLeft=3;spacingRight=3;rotatable=0;labelPosition=right;points=[];portConstraint=eastwest;" vertex="1" parent="DHVbr6--1tinv_JmC_Sy-45">
          <mxGeometry y="52" width="90" height="8" as="geometry" />
        </mxCell>
        <mxCell id="DHVbr6--1tinv_JmC_Sy-48" value="로그인" style="text;strokeColor=none;fillColor=none;align=left;verticalAlign=top;spacingLeft=4;spacingRight=4;overflow=hidden;rotatable=0;points=[[0,0.5],[1,0.5]];portConstraint=eastwest;" vertex="1" parent="DHVbr6--1tinv_JmC_Sy-45">
          <mxGeometry y="60" width="90" height="26" as="geometry" />
        </mxCell>
        <mxCell id="DHVbr6--1tinv_JmC_Sy-49" value="비로그인" style="swimlane;fontStyle=0;childLayout=stackLayout;horizontal=1;startSize=26;horizontalStack=0;resizeParent=1;resizeParentMax=0;resizeLast=0;collapsible=1;marginBottom=0;align=center;fontSize=14;" vertex="1" parent="1">
          <mxGeometry x="910" y="-100" width="160" height="176" as="geometry" />
        </mxCell>
        <mxCell id="DHVbr6--1tinv_JmC_Sy-50" value="경기 기록 접근 가능" style="text;strokeColor=none;fillColor=none;spacingLeft=4;spacingRight=4;overflow=hidden;rotatable=0;points=[[0,0.5],[1,0.5]];portConstraint=eastwest;fontSize=12;" vertex="1" parent="DHVbr6--1tinv_JmC_Sy-49">
          <mxGeometry y="26" width="160" height="30" as="geometry" />
        </mxCell>
        <mxCell id="DHVbr6--1tinv_JmC_Sy-51" value="게시물 접근 가능 " style="text;strokeColor=none;fillColor=none;spacingLeft=4;spacingRight=4;overflow=hidden;rotatable=0;points=[[0,0.5],[1,0.5]];portConstraint=eastwest;fontSize=12;" vertex="1" parent="DHVbr6--1tinv_JmC_Sy-49">
          <mxGeometry y="56" width="160" height="30" as="geometry" />
        </mxCell>
        <mxCell id="DHVbr6--1tinv_JmC_Sy-52" value="Offcanvas 축구 탭 접근 가능" style="text;strokeColor=none;fillColor=none;spacingLeft=4;spacingRight=4;overflow=hidden;rotatable=0;points=[[0,0.5],[1,0.5]];portConstraint=eastwest;fontSize=12;" vertex="1" parent="DHVbr6--1tinv_JmC_Sy-49">
          <mxGeometry y="86" width="160" height="30" as="geometry" />
        </mxCell>
        <mxCell id="DHVbr6--1tinv_JmC_Sy-54" value="Offcanvas 야구 탭 접근 가능" style="text;strokeColor=none;fillColor=none;spacingLeft=4;spacingRight=4;overflow=hidden;rotatable=0;points=[[0,0.5],[1,0.5]];portConstraint=eastwest;fontSize=12;" vertex="1" parent="DHVbr6--1tinv_JmC_Sy-49">
          <mxGeometry y="116" width="160" height="30" as="geometry" />
        </mxCell>
        <mxCell id="DHVbr6--1tinv_JmC_Sy-123" value="검색 기능 사용" style="text;strokeColor=none;fillColor=none;spacingLeft=4;spacingRight=4;overflow=hidden;rotatable=0;points=[[0,0.5],[1,0.5]];portConstraint=eastwest;fontSize=12;" vertex="1" parent="DHVbr6--1tinv_JmC_Sy-49">
          <mxGeometry y="146" width="160" height="30" as="geometry" />
        </mxCell>
        <mxCell id="DHVbr6--1tinv_JmC_Sy-61" value="로그인" style="swimlane;fontStyle=0;childLayout=stackLayout;horizontal=1;startSize=26;horizontalStack=0;resizeParent=1;resizeParentMax=0;resizeLast=0;collapsible=1;marginBottom=0;align=center;fontSize=14;" vertex="1" parent="1">
          <mxGeometry x="910" y="131" width="220" height="236" as="geometry" />
        </mxCell>
        <mxCell id="DHVbr6--1tinv_JmC_Sy-62" value="경기 기록 접근 가능" style="text;strokeColor=none;fillColor=none;spacingLeft=4;spacingRight=4;overflow=hidden;rotatable=0;points=[[0,0.5],[1,0.5]];portConstraint=eastwest;fontSize=12;" vertex="1" parent="DHVbr6--1tinv_JmC_Sy-61">
          <mxGeometry y="26" width="220" height="30" as="geometry" />
        </mxCell>
        <mxCell id="DHVbr6--1tinv_JmC_Sy-63" value="게시물 접근 가능 " style="text;strokeColor=none;fillColor=none;spacingLeft=4;spacingRight=4;overflow=hidden;rotatable=0;points=[[0,0.5],[1,0.5]];portConstraint=eastwest;fontSize=12;" vertex="1" parent="DHVbr6--1tinv_JmC_Sy-61">
          <mxGeometry y="56" width="220" height="30" as="geometry" />
        </mxCell>
        <mxCell id="DHVbr6--1tinv_JmC_Sy-64" value="Offcanvas 축구 탭 접근 가능" style="text;strokeColor=none;fillColor=none;spacingLeft=4;spacingRight=4;overflow=hidden;rotatable=0;points=[[0,0.5],[1,0.5]];portConstraint=eastwest;fontSize=12;" vertex="1" parent="DHVbr6--1tinv_JmC_Sy-61">
          <mxGeometry y="86" width="220" height="30" as="geometry" />
        </mxCell>
        <mxCell id="DHVbr6--1tinv_JmC_Sy-65" value="Offcanvas 야구 탭 접근 가능" style="text;strokeColor=none;fillColor=none;spacingLeft=4;spacingRight=4;overflow=hidden;rotatable=0;points=[[0,0.5],[1,0.5]];portConstraint=eastwest;fontSize=12;" vertex="1" parent="DHVbr6--1tinv_JmC_Sy-61">
          <mxGeometry y="116" width="220" height="30" as="geometry" />
        </mxCell>
        <mxCell id="DHVbr6--1tinv_JmC_Sy-66" value="게시물 댓글 관리&#xa;" style="text;strokeColor=none;fillColor=none;spacingLeft=4;spacingRight=4;overflow=hidden;rotatable=0;points=[[0,0.5],[1,0.5]];portConstraint=eastwest;fontSize=12;" vertex="1" parent="DHVbr6--1tinv_JmC_Sy-61">
          <mxGeometry y="146" width="220" height="30" as="geometry" />
        </mxCell>
        <mxCell id="DHVbr6--1tinv_JmC_Sy-68" value="개인정보 관리" style="text;strokeColor=none;fillColor=none;spacingLeft=4;spacingRight=4;overflow=hidden;rotatable=0;points=[[0,0.5],[1,0.5]];portConstraint=eastwest;fontSize=12;" vertex="1" parent="DHVbr6--1tinv_JmC_Sy-61">
          <mxGeometry y="176" width="220" height="30" as="geometry" />
        </mxCell>
        <mxCell id="DHVbr6--1tinv_JmC_Sy-124" value="검색 기능 사용" style="text;strokeColor=none;fillColor=none;spacingLeft=4;spacingRight=4;overflow=hidden;rotatable=0;points=[[0,0.5],[1,0.5]];portConstraint=eastwest;fontSize=12;" vertex="1" parent="DHVbr6--1tinv_JmC_Sy-61">
          <mxGeometry y="206" width="220" height="30" as="geometry" />
        </mxCell>
        <mxCell id="DHVbr6--1tinv_JmC_Sy-69" value="사용 유형" style="swimlane;fontStyle=1;align=center;verticalAlign=top;childLayout=stackLayout;horizontal=1;startSize=26;horizontalStack=0;resizeParent=1;resizeParentMax=0;resizeLast=0;collapsible=1;marginBottom=0;" vertex="1" parent="1">
          <mxGeometry x="549" y="140" width="90" height="86" as="geometry" />
        </mxCell>
        <mxCell id="DHVbr6--1tinv_JmC_Sy-70" value="사용자" style="text;strokeColor=none;fillColor=none;align=left;verticalAlign=top;spacingLeft=4;spacingRight=4;overflow=hidden;rotatable=0;points=[[0,0.5],[1,0.5]];portConstraint=eastwest;" vertex="1" parent="DHVbr6--1tinv_JmC_Sy-69">
          <mxGeometry y="26" width="90" height="26" as="geometry" />
        </mxCell>
        <mxCell id="DHVbr6--1tinv_JmC_Sy-71" value="" style="line;strokeWidth=1;fillColor=none;align=left;verticalAlign=middle;spacingTop=-1;spacingLeft=3;spacingRight=3;rotatable=0;labelPosition=right;points=[];portConstraint=eastwest;" vertex="1" parent="DHVbr6--1tinv_JmC_Sy-69">
          <mxGeometry y="52" width="90" height="8" as="geometry" />
        </mxCell>
        <mxCell id="DHVbr6--1tinv_JmC_Sy-72" value="관리자" style="text;strokeColor=none;fillColor=none;align=left;verticalAlign=top;spacingLeft=4;spacingRight=4;overflow=hidden;rotatable=0;points=[[0,0.5],[1,0.5]];portConstraint=eastwest;" vertex="1" parent="DHVbr6--1tinv_JmC_Sy-69">
          <mxGeometry y="60" width="90" height="26" as="geometry" />
        </mxCell>
        <mxCell id="DHVbr6--1tinv_JmC_Sy-74" style="edgeStyle=orthogonalEdgeStyle;rounded=0;orthogonalLoop=1;jettySize=auto;html=1;exitX=1;exitY=0.5;exitDx=0;exitDy=0;entryX=0.556;entryY=0;entryDx=0;entryDy=0;entryPerimeter=0;endArrow=classic;endFill=1;" edge="1" parent="1" source="DHVbr6--1tinv_JmC_Sy-70" target="DHVbr6--1tinv_JmC_Sy-45">
          <mxGeometry relative="1" as="geometry" />
        </mxCell>
        <mxCell id="DHVbr6--1tinv_JmC_Sy-75" value="관리자" style="swimlane;fontStyle=1;align=center;verticalAlign=top;childLayout=stackLayout;horizontal=1;startSize=26;horizontalStack=0;resizeParent=1;resizeParentMax=0;resizeLast=0;collapsible=1;marginBottom=0;" vertex="1" parent="1">
          <mxGeometry x="360" y="131" width="90" height="104" as="geometry" />
        </mxCell>
        <mxCell id="DHVbr6--1tinv_JmC_Sy-76" value="게시물 관리" style="text;strokeColor=none;fillColor=none;align=left;verticalAlign=top;spacingLeft=4;spacingRight=4;overflow=hidden;rotatable=0;points=[[0,0.5],[1,0.5]];portConstraint=eastwest;" vertex="1" parent="DHVbr6--1tinv_JmC_Sy-75">
          <mxGeometry y="26" width="90" height="26" as="geometry" />
        </mxCell>
        <mxCell id="DHVbr6--1tinv_JmC_Sy-78" value="경기 기록 관리" style="text;strokeColor=none;fillColor=none;align=left;verticalAlign=top;spacingLeft=4;spacingRight=4;overflow=hidden;rotatable=0;points=[[0,0.5],[1,0.5]];portConstraint=eastwest;" vertex="1" parent="DHVbr6--1tinv_JmC_Sy-75">
          <mxGeometry y="52" width="90" height="26" as="geometry" />
        </mxCell>
        <mxCell id="DHVbr6--1tinv_JmC_Sy-79" value="회원 목록 관리" style="text;strokeColor=none;fillColor=none;align=left;verticalAlign=top;spacingLeft=4;spacingRight=4;overflow=hidden;rotatable=0;points=[[0,0.5],[1,0.5]];portConstraint=eastwest;" vertex="1" parent="DHVbr6--1tinv_JmC_Sy-75">
          <mxGeometry y="78" width="90" height="26" as="geometry" />
        </mxCell>
        <mxCell id="DHVbr6--1tinv_JmC_Sy-80" style="edgeStyle=orthogonalEdgeStyle;rounded=0;orthogonalLoop=1;jettySize=auto;html=1;exitX=0;exitY=0.5;exitDx=0;exitDy=0;entryX=1.011;entryY=0.183;entryDx=0;entryDy=0;entryPerimeter=0;endArrow=classic;endFill=1;" edge="1" parent="1" source="DHVbr6--1tinv_JmC_Sy-72" target="DHVbr6--1tinv_JmC_Sy-75">
          <mxGeometry relative="1" as="geometry">
            <Array as="points">
              <mxPoint x="510" y="213" />
              <mxPoint x="510" y="150" />
            </Array>
          </mxGeometry>
        </mxCell>
        <mxCell id="DHVbr6--1tinv_JmC_Sy-81" value="게시물 댓글 관리" style="swimlane;fontStyle=0;childLayout=stackLayout;horizontal=1;startSize=26;horizontalStack=0;resizeParent=1;resizeParentMax=0;resizeLast=0;collapsible=1;marginBottom=0;align=center;fontSize=14;" vertex="1" parent="1">
          <mxGeometry x="1261" width="160" height="146" as="geometry" />
        </mxCell>
        <mxCell id="DHVbr6--1tinv_JmC_Sy-82" value="댓글 추가" style="text;strokeColor=none;fillColor=none;spacingLeft=4;spacingRight=4;overflow=hidden;rotatable=0;points=[[0,0.5],[1,0.5]];portConstraint=eastwest;fontSize=12;" vertex="1" parent="DHVbr6--1tinv_JmC_Sy-81">
          <mxGeometry y="26" width="160" height="30" as="geometry" />
        </mxCell>
        <mxCell id="DHVbr6--1tinv_JmC_Sy-83" value="댓글 수정" style="text;strokeColor=none;fillColor=none;spacingLeft=4;spacingRight=4;overflow=hidden;rotatable=0;points=[[0,0.5],[1,0.5]];portConstraint=eastwest;fontSize=12;" vertex="1" parent="DHVbr6--1tinv_JmC_Sy-81">
          <mxGeometry y="56" width="160" height="30" as="geometry" />
        </mxCell>
        <mxCell id="DHVbr6--1tinv_JmC_Sy-88" value="댓글 삭제" style="text;strokeColor=none;fillColor=none;spacingLeft=4;spacingRight=4;overflow=hidden;rotatable=0;points=[[0,0.5],[1,0.5]];portConstraint=eastwest;fontSize=12;" vertex="1" parent="DHVbr6--1tinv_JmC_Sy-81">
          <mxGeometry y="86" width="160" height="30" as="geometry" />
        </mxCell>
        <mxCell id="DHVbr6--1tinv_JmC_Sy-90" value="좋아요" style="text;strokeColor=none;fillColor=none;spacingLeft=4;spacingRight=4;overflow=hidden;rotatable=0;points=[[0,0.5],[1,0.5]];portConstraint=eastwest;fontSize=12;" vertex="1" parent="DHVbr6--1tinv_JmC_Sy-81">
          <mxGeometry y="116" width="160" height="30" as="geometry" />
        </mxCell>
        <mxCell id="DHVbr6--1tinv_JmC_Sy-92" value="개인정보 관리" style="swimlane;fontStyle=0;childLayout=stackLayout;horizontal=1;startSize=26;horizontalStack=0;resizeParent=1;resizeParentMax=0;resizeLast=0;collapsible=1;marginBottom=0;align=center;fontSize=14;" vertex="1" parent="1">
          <mxGeometry x="1261" y="204" width="160" height="86" as="geometry" />
        </mxCell>
        <mxCell id="DHVbr6--1tinv_JmC_Sy-93" value="정보 확인" style="text;strokeColor=none;fillColor=none;spacingLeft=4;spacingRight=4;overflow=hidden;rotatable=0;points=[[0,0.5],[1,0.5]];portConstraint=eastwest;fontSize=12;" vertex="1" parent="DHVbr6--1tinv_JmC_Sy-92">
          <mxGeometry y="26" width="160" height="30" as="geometry" />
        </mxCell>
        <mxCell id="DHVbr6--1tinv_JmC_Sy-94" value="정보 수정" style="text;strokeColor=none;fillColor=none;spacingLeft=4;spacingRight=4;overflow=hidden;rotatable=0;points=[[0,0.5],[1,0.5]];portConstraint=eastwest;fontSize=12;" vertex="1" parent="DHVbr6--1tinv_JmC_Sy-92">
          <mxGeometry y="56" width="160" height="30" as="geometry" />
        </mxCell>
        <mxCell id="DHVbr6--1tinv_JmC_Sy-99" value="게시물 관리" style="swimlane;fontStyle=1;align=center;verticalAlign=top;childLayout=stackLayout;horizontal=1;startSize=26;horizontalStack=0;resizeParent=1;resizeParentMax=0;resizeLast=0;collapsible=1;marginBottom=0;" vertex="1" parent="1">
          <mxGeometry x="200" y="-20" width="90" height="104" as="geometry" />
        </mxCell>
        <mxCell id="DHVbr6--1tinv_JmC_Sy-103" value="게시물 등록" style="text;strokeColor=none;fillColor=none;align=left;verticalAlign=top;spacingLeft=4;spacingRight=4;overflow=hidden;rotatable=0;points=[[0,0.5],[1,0.5]];portConstraint=eastwest;" vertex="1" parent="DHVbr6--1tinv_JmC_Sy-99">
          <mxGeometry y="26" width="90" height="26" as="geometry" />
        </mxCell>
        <mxCell id="DHVbr6--1tinv_JmC_Sy-100" value="게시물 삭제" style="text;strokeColor=none;fillColor=none;align=left;verticalAlign=top;spacingLeft=4;spacingRight=4;overflow=hidden;rotatable=0;points=[[0,0.5],[1,0.5]];portConstraint=eastwest;" vertex="1" parent="DHVbr6--1tinv_JmC_Sy-99">
          <mxGeometry y="52" width="90" height="26" as="geometry" />
        </mxCell>
        <mxCell id="DHVbr6--1tinv_JmC_Sy-101" value="게시물 수정" style="text;strokeColor=none;fillColor=none;align=left;verticalAlign=top;spacingLeft=4;spacingRight=4;overflow=hidden;rotatable=0;points=[[0,0.5],[1,0.5]];portConstraint=eastwest;" vertex="1" parent="DHVbr6--1tinv_JmC_Sy-99">
          <mxGeometry y="78" width="90" height="26" as="geometry" />
        </mxCell>
        <mxCell id="DHVbr6--1tinv_JmC_Sy-104" style="edgeStyle=orthogonalEdgeStyle;rounded=0;orthogonalLoop=1;jettySize=auto;html=1;exitX=0;exitY=0.5;exitDx=0;exitDy=0;entryX=1.003;entryY=0.121;entryDx=0;entryDy=0;entryPerimeter=0;endArrow=classic;endFill=1;" edge="1" parent="1" source="DHVbr6--1tinv_JmC_Sy-76" target="DHVbr6--1tinv_JmC_Sy-99">
          <mxGeometry relative="1" as="geometry" />
        </mxCell>
        <mxCell id="DHVbr6--1tinv_JmC_Sy-105" value="경기 기록 관리" style="swimlane;fontStyle=1;align=center;verticalAlign=top;childLayout=stackLayout;horizontal=1;startSize=26;horizontalStack=0;resizeParent=1;resizeParentMax=0;resizeLast=0;collapsible=1;marginBottom=0;" vertex="1" parent="1">
          <mxGeometry x="200" y="140" width="90" height="104" as="geometry" />
        </mxCell>
        <mxCell id="DHVbr6--1tinv_JmC_Sy-106" value="경기 기록 등록" style="text;strokeColor=none;fillColor=none;align=left;verticalAlign=top;spacingLeft=4;spacingRight=4;overflow=hidden;rotatable=0;points=[[0,0.5],[1,0.5]];portConstraint=eastwest;" vertex="1" parent="DHVbr6--1tinv_JmC_Sy-105">
          <mxGeometry y="26" width="90" height="26" as="geometry" />
        </mxCell>
        <mxCell id="DHVbr6--1tinv_JmC_Sy-107" value="경기 기록 삭제" style="text;strokeColor=none;fillColor=none;align=left;verticalAlign=top;spacingLeft=4;spacingRight=4;overflow=hidden;rotatable=0;points=[[0,0.5],[1,0.5]];portConstraint=eastwest;" vertex="1" parent="DHVbr6--1tinv_JmC_Sy-105">
          <mxGeometry y="52" width="90" height="26" as="geometry" />
        </mxCell>
        <mxCell id="DHVbr6--1tinv_JmC_Sy-108" value="경기 기록 수정" style="text;strokeColor=none;fillColor=none;align=left;verticalAlign=top;spacingLeft=4;spacingRight=4;overflow=hidden;rotatable=0;points=[[0,0.5],[1,0.5]];portConstraint=eastwest;" vertex="1" parent="DHVbr6--1tinv_JmC_Sy-105">
          <mxGeometry y="78" width="90" height="26" as="geometry" />
        </mxCell>
        <mxCell id="DHVbr6--1tinv_JmC_Sy-110" style="edgeStyle=orthogonalEdgeStyle;rounded=0;orthogonalLoop=1;jettySize=auto;html=1;exitX=0;exitY=0.5;exitDx=0;exitDy=0;endArrow=classic;endFill=1;" edge="1" parent="1" source="DHVbr6--1tinv_JmC_Sy-78" target="DHVbr6--1tinv_JmC_Sy-105">
          <mxGeometry relative="1" as="geometry" />
        </mxCell>
        <mxCell id="DHVbr6--1tinv_JmC_Sy-111" value="회원 목록 관리" style="swimlane;fontStyle=1;align=center;verticalAlign=top;childLayout=stackLayout;horizontal=1;startSize=26;horizontalStack=0;resizeParent=1;resizeParentMax=0;resizeLast=0;collapsible=1;marginBottom=0;" vertex="1" parent="1">
          <mxGeometry x="200" y="290" width="90" height="78" as="geometry" />
        </mxCell>
        <mxCell id="DHVbr6--1tinv_JmC_Sy-112" value="회원 삭제" style="text;strokeColor=none;fillColor=none;align=left;verticalAlign=top;spacingLeft=4;spacingRight=4;overflow=hidden;rotatable=0;points=[[0,0.5],[1,0.5]];portConstraint=eastwest;" vertex="1" parent="DHVbr6--1tinv_JmC_Sy-111">
          <mxGeometry y="26" width="90" height="26" as="geometry" />
        </mxCell>
        <mxCell id="DHVbr6--1tinv_JmC_Sy-113" value="회원 기록 상세 " style="text;strokeColor=none;fillColor=none;align=left;verticalAlign=top;spacingLeft=4;spacingRight=4;overflow=hidden;rotatable=0;points=[[0,0.5],[1,0.5]];portConstraint=eastwest;" vertex="1" parent="DHVbr6--1tinv_JmC_Sy-111">
          <mxGeometry y="52" width="90" height="26" as="geometry" />
        </mxCell>
        <mxCell id="DHVbr6--1tinv_JmC_Sy-115" style="edgeStyle=orthogonalEdgeStyle;rounded=0;orthogonalLoop=1;jettySize=auto;html=1;exitX=0;exitY=0.5;exitDx=0;exitDy=0;entryX=0.5;entryY=0;entryDx=0;entryDy=0;endArrow=classic;endFill=1;" edge="1" parent="1" source="DHVbr6--1tinv_JmC_Sy-79" target="DHVbr6--1tinv_JmC_Sy-111">
          <mxGeometry relative="1" as="geometry">
            <Array as="points">
              <mxPoint x="330" y="222" />
              <mxPoint x="330" y="260" />
              <mxPoint x="245" y="260" />
            </Array>
          </mxGeometry>
        </mxCell>
        <mxCell id="DHVbr6--1tinv_JmC_Sy-117" style="edgeStyle=orthogonalEdgeStyle;rounded=0;orthogonalLoop=1;jettySize=auto;html=1;exitX=1;exitY=0.5;exitDx=0;exitDy=0;endArrow=classic;endFill=1;" edge="1" parent="1" source="DHVbr6--1tinv_JmC_Sy-48" target="DHVbr6--1tinv_JmC_Sy-61">
          <mxGeometry relative="1" as="geometry" />
        </mxCell>
        <mxCell id="DHVbr6--1tinv_JmC_Sy-119" style="edgeStyle=orthogonalEdgeStyle;rounded=0;orthogonalLoop=1;jettySize=auto;html=1;exitX=1;exitY=0.5;exitDx=0;exitDy=0;endArrow=classic;endFill=1;" edge="1" parent="1" source="DHVbr6--1tinv_JmC_Sy-68" target="DHVbr6--1tinv_JmC_Sy-92">
          <mxGeometry relative="1" as="geometry" />
        </mxCell>
        <mxCell id="DHVbr6--1tinv_JmC_Sy-120" style="edgeStyle=orthogonalEdgeStyle;rounded=0;orthogonalLoop=1;jettySize=auto;html=1;exitX=1;exitY=0.5;exitDx=0;exitDy=0;endArrow=classic;endFill=1;" edge="1" parent="1" source="DHVbr6--1tinv_JmC_Sy-66" target="DHVbr6--1tinv_JmC_Sy-81">
          <mxGeometry relative="1" as="geometry">
            <Array as="points">
              <mxPoint x="1230" y="292" />
              <mxPoint x="1230" y="88" />
            </Array>
          </mxGeometry>
        </mxCell>
        <mxCell id="DHVbr6--1tinv_JmC_Sy-121" style="edgeStyle=orthogonalEdgeStyle;rounded=0;orthogonalLoop=1;jettySize=auto;html=1;exitX=1;exitY=0.5;exitDx=0;exitDy=0;endArrow=classic;endFill=1;" edge="1" parent="1" source="DHVbr6--1tinv_JmC_Sy-46" target="DHVbr6--1tinv_JmC_Sy-49">
          <mxGeometry relative="1" as="geometry">
            <Array as="points">
              <mxPoint x="860" y="179" />
              <mxPoint x="860" y="90" />
              <mxPoint x="1010" y="90" />
            </Array>
          </mxGeometry>
        </mxCell>
      </root>
    </mxGraphModel>
  </diagram>
</mxfile>
